<svg id="圖層_1" data-name="圖層 1" xmlns="http://www.w3.org/2000/svg" viewBox="0 0 60 60"><defs><style>.cls-1,.cls-2,.cls-3{fill:none;stroke:#000;stroke-linecap:round;stroke-miterlimit:10;}.cls-1{stroke-width:0.5px;}.cls-3{stroke-width:0.75px;}</style></defs><title>web-icon</title><path class="cls-1" d="M30.17,45c-.82-.82-2.45,0-2.45,0a9.1,9.1,0,0,0,2.4.94A9.87,9.87,0,0,0,32.61,45s-1.63-.82-2.44,0"/><path class="cls-2" d="M5.37,39.69A26.76,26.76,0,0,1,40.1,4.78"/><path class="cls-2" d="M55.42,20.78A26.76,26.76,0,0,1,21.57,55"/><path class="cls-2" d="M25.54,55.5a6.83,6.83,0,0,0-3.87-6.86c-2.47-1.35-8.13-.14-9.13-2.14s2-5,2-6-3.53,2.67-5-1c-2-5-1.35-12.32-1-14A22.46,22.46,0,0,1,30.58,7.25"/><path class="cls-2" d="M9.53,22.12s-3.9,12.33,3,16.38c8.84,5.17-.42,7.91,5,9"/><path class="cls-2" d="M17.22,42.84c2.18,4.35,10.77,9.69,13,9.69"/><path class="cls-2" d="M30.17,13.43c-7.61,3.26.37,11.07-7.61,16.29-9.34,6.12-5.1,14.52-4,17.78"/><path class="cls-2" d="M30.17,13.43C16.05,20,27.43,28.89,20.4,30.81c-9.86,2.69-5.86,7.52-5.86,9.69"/><path class="cls-2" d="M26.91,15.6c-4.34,1.09-12.87,6-10.86,12,2.18,6.52-8.69,4.35-6.52,7.61"/><path class="cls-2" d="M30.17,41.67H30a2,2,0,0,1-2-2V29.72s-2.55-2.17-6.16.55"/><path class="cls-3" d="M18.76,34.61a5.37,5.37,0,0,0,7.6,0"/><path class="cls-2" d="M18.22,11s-10.86,6.8-5.43,14.4c4.56,6.37.16,7.07-.46,7.34"/><path class="cls-2" d="M28.54,7.5s6,10-7,5C11,8.43,16.37,23.14,16.37,23.14"/><path class="cls-2" d="M34.54,55.5a6.84,6.84,0,0,1,3.88-6.86c2.47-1.35,8.12-.14,9.12-2.14s-2-5-2-6,3.53,2.67,5-1c2-5,1.35-12.32,1-14A22.46,22.46,0,0,0,29.5,7.25"/><path class="cls-2" d="M50.56,22.12s3.89,12.33-3,16.38c-8.83,5.17.43,7.91-5,9"/><path class="cls-2" d="M42.86,42.84c-2.17,4.35-10.77,9.69-12.94,9.69"/><path class="cls-2" d="M29.92,13.43c7.6,3.26-.38,11.07,7.6,16.29,9.35,6.12,5.11,14.52,4,17.78"/><path class="cls-2" d="M29.92,13.43C44,20,32.66,28.89,39.69,30.81c9.85,2.69,5.85,7.52,5.85,9.69"/><path class="cls-2" d="M33.17,15.6c4.35,1.09,12.87,6,10.86,12-2.17,6.52,8.69,4.35,6.52,7.61"/><path class="cls-2" d="M32.09,29.72s2.56-2.17,6.17.55"/><path class="cls-3" d="M41.32,34.61a5.37,5.37,0,0,1-7.6,0"/><path class="cls-2" d="M41.87,11s10.85,6.8,5.42,14.4c-4.55,6.37-.16,7.07.47,7.34"/><path class="cls-2" d="M31.54,7.5s-6,10,7,5c10.59-4.07,5.17,10.64,5.17,10.64"/></svg>