<svg id="圖層_1" data-name="圖層 1" xmlns="http://www.w3.org/2000/svg" viewBox="0 0 60 60"><defs><style>.cls-1,.cls-2,.cls-4,.cls-7{fill:none;}.cls-1,.cls-2,.cls-3,.cls-4,.cls-8{stroke:#000;}.cls-1,.cls-2,.cls-4,.cls-5,.cls-6,.cls-7,.cls-8{stroke-miterlimit:10;}.cls-2,.cls-3,.cls-5,.cls-6,.cls-7,.cls-8{stroke-linecap:round;}.cls-3{fill:#fff;stroke-linejoin:round;}.cls-4{stroke-width:0.5px;}.cls-5,.cls-6,.cls-7{stroke:#fff;}.cls-6{stroke-width:0.75px;}.cls-7{stroke-width:2px;}</style></defs><title>web-icon</title><path class="cls-1" d="M12.33,10.71A25.07,25.07,0,0,1,51.39,42"/><path class="cls-2" d="M18.83,10.7a20.7,20.7,0,0,1,30.17,7"/><path class="cls-2" d="M30.75,52.64H6.86a2.92,2.92,0,0,1-2.92-2.92V13.62a2.91,2.91,0,0,1,2.92-2.91H41.5"/><line class="cls-3" x1="4" y1="17.99" x2="36.5" y2="17.99"/><circle class="cls-4" cx="9.36" cy="14.48" r="1.28"/><circle class="cls-4" cx="18.72" cy="14.48" r="1.28"/><circle class="cls-4" cx="14.04" cy="14.48" r="1.28"/><rect class="cls-5" x="7.14" y="22.27" width="20.86" height="12.92"/><path class="cls-5" d="M7.14,35.2s4.91-7.3,7.36-7.3,1.23,7.3,5.52,7.3,8-11,8-11.31"/><rect class="cls-6" x="13.02" y="36.96" width="14.98" height="1.85"/><rect class="cls-6" x="13.02" y="43.63" width="14.98" height="1.85"/><rect class="cls-6" x="13.02" y="46.96" width="14.98" height="1.85"/><rect class="cls-6" x="13.02" y="40.29" width="14.98" height="1.85"/><rect class="cls-6" x="7.14" y="36.96" width="4.91" height="1.85"/><rect class="cls-6" x="7.14" y="43.63" width="4.91" height="1.85"/><rect class="cls-6" x="7.14" y="46.96" width="4.91" height="1.85"/><rect class="cls-6" x="7.14" y="40.29" width="4.91" height="1.85"/><rect class="cls-7" x="31.84" y="22.27" width="18.92" height="35.95" rx="2.6" ry="2.6"/><rect class="cls-2" x="31.84" y="22.27" width="18.92" height="35.95" rx="2.6" ry="2.6"/><rect class="cls-6" x="37.23" y="41.67" width="11.77" height="1.69"/><rect class="cls-6" x="37.23" y="48.45" width="11.77" height="1.69"/><rect class="cls-6" x="37.23" y="51.84" width="11.77" height="1.69"/><rect class="cls-6" x="37.23" y="45.06" width="11.77" height="1.69"/><rect class="cls-6" x="33.61" y="41.67" width="3.62" height="1.69"/><rect class="cls-6" x="33.61" y="48.45" width="3.62" height="1.69"/><rect class="cls-6" x="33.61" y="51.84" width="3.62" height="1.69"/><rect class="cls-6" x="33.61" y="45.06" width="3.62" height="1.69"/><path class="cls-8" d="M35.3,23.26a1.56,1.56,0,0,0,1.56,1.56h8.89a1.55,1.55,0,0,0,1.55-1.56V23h-12Z"/><rect class="cls-5" x="33.69" y="29.63" width="15.22" height="9.37"/><path class="cls-5" d="M33.69,39s3.58-5.29,5.37-5.29S40,39,43.09,39s5.83-7.93,5.83-8.2"/></svg>