<svg id="圖層_1" data-name="圖層 1" xmlns="http://www.w3.org/2000/svg" viewBox="0 0 60 60"><defs><style>.cls-1,.cls-2,.cls-4{fill:none;}.cls-1,.cls-2,.cls-3,.cls-4{stroke:#000;}.cls-1,.cls-2,.cls-4,.cls-5,.cls-6{stroke-miterlimit:10;}.cls-2,.cls-3,.cls-5,.cls-6{stroke-linecap:round;}.cls-3{fill:#fff;stroke-linejoin:round;}.cls-4{stroke-width:0.5px;}.cls-5,.cls-6{stroke:#fff;}.cls-6{stroke-width:0.75px;}</style></defs><title>web-icon</title><path class="cls-1" d="M11.65,11.77A26.79,26.79,0,1,1,10.92,47"/><path class="cls-2" d="M18.6,11.76a22.11,22.11,0,0,1,32.23,7.52"/><path class="cls-2" d="M49.44,42.53A22.1,22.1,0,0,1,17.49,47"/><path class="cls-2" d="M36.41,47H5.81a3.12,3.12,0,0,1-3.12-3.11v-29a3.12,3.12,0,0,1,3.12-3.11h37"/><line class="cls-3" x1="12.96" y1="41.99" x2="49.23" y2="41.99"/><line class="cls-3" x1="2.75" y1="41.99" x2="12.96" y2="41.99"/><path class="cls-2" d="M23.58,47S30,46.81,30,51.08"/><circle class="cls-4" cx="8.48" cy="15.8" r="1.36"/><circle class="cls-4" cx="18.48" cy="15.8" r="1.36"/><circle class="cls-4" cx="13.48" cy="15.8" r="1.36"/><rect class="cls-5" x="5.43" y="20.9" width="26.9" height="16.66" rx="7.08" ry="7.08"/><path class="cls-5" d="M5.43,37.56s6.33-9.4,9.5-9.4,1.58,9.4,7.12,9.4S32.34,23.46,32.34,23"/><rect class="cls-6" x="39.88" y="22.26" width="10.94" height="2.17"/><rect class="cls-6" x="39.88" y="30.11" width="10.94" height="2.17"/><rect class="cls-6" x="39.88" y="34.03" width="10.94" height="2.17"/><rect class="cls-6" x="39.88" y="26.19" width="10.94" height="2.17"/><rect class="cls-6" x="35.58" y="22.26" width="3.59" height="2.17"/><rect class="cls-6" x="35.58" y="30.11" width="3.59" height="2.17"/><rect class="cls-6" x="35.58" y="34.03" width="3.59" height="2.17"/><rect class="cls-6" x="35.58" y="26.19" width="3.59" height="2.17"/></svg>